# xmcd
#
# Track frame offsets:
#	150
#	35532
#	56223
#	87102
#	108638
#	141803
#	172316
#	197827
#	214104
#	238752
#	262855
#	281374
#	306277
#	332260
#
# Disc length: 4686 seconds
#
# Revision: 1
# Processed by: cddbd v1.5.2PL0 Copyright (c) Steve Scherf et al.
# Submitted via: audiograbber 1.83.01
#
DISCID=ce124c0e
DTITLE=Joe Bonamassa - Greatest Hits  CD2
DYEAR=2015
DGENRE=Blues/Rock
TTITLE0=Midnight Blues
TTITLE1=Heartache Follows Wherever I Go
TTITLE2=Slow Train
TTITLE3=A New Day Yesterday
TTITLE4=Blues Deluxe
TTITLE5=Stop!
TTITLE6=One Of These Days
TTITLE7=You Upset Me Baby
TTITLE8=So, What Would I Do
TTITLE9=Jockey Full Of Bourbon
TTITLE10=High Water Everywhere
TTITLE11=The River
TTITLE12=Blue And Evil
TTITLE13=Asking Around for You
EXTD=
EXTT0=
EXTT1=
EXTT2=
EXTT3=
EXTT4=
EXTT5=
EXTT6=
EXTT7=
EXTT8=
EXTT9=
EXTT10=
EXTT11=
EXTT12=
EXTT13=
PLAYORDER=
